<?xml version="1.0" encoding="UTF-8" standalone="no"?>
<!DOCTYPE svg PUBLIC "-//W3C//DTD SVG 1.1//EN" "http://www.w3.org/Graphics/SVG/1.1/DTD/svg11.dtd">
<svg width="100%" height="100%" viewBox="0 0 509 509" version="1.1" xmlns="http://www.w3.org/2000/svg" xmlns:xlink="http://www.w3.org/1999/xlink" xml:space="preserve" xmlns:serif="http://www.serif.com/" style="fill-rule:evenodd;clip-rule:evenodd;stroke-linejoin:round;stroke-miterlimit:2;">
    <g transform="matrix(1,0,0,1,0.00124283,-0.00281159)">
        <g>
            <g>
                <g transform="matrix(2.92512,2.92512,-2.94447,2.94447,252.429,-109.194)">
                    <path d="M57.16,39.83C57.16,38.23 57.29,36.62 57.47,35.02C58.47,25.95 62.59,20.42 64.47,12.5C66.86,2.89 57.32,-0.75 49.41,0.13C45.385,0.684 41.477,1.889 37.84,3.7C34.598,5.254 31.556,7.195 28.78,9.48C9.37,25.2 14.39,45.08 37,55.51C38.196,56.057 39.461,56.441 40.76,56.65C42.549,48.377 48.935,41.827 57.16,39.83Z"/>
                </g>
                <g transform="matrix(-2.92512,-2.92512,2.94447,-2.94447,255.875,617.895)">
                    <path d="M57.16,39.83C57.16,38.23 57.29,36.62 57.47,35.02C58.47,25.95 62.59,20.42 64.47,12.5C66.86,2.89 57.32,-0.75 49.41,0.13C45.385,0.684 41.477,1.889 37.84,3.7C34.598,5.254 31.556,7.195 28.78,9.48C9.37,25.2 14.39,45.08 37,55.51C38.196,56.057 39.461,56.441 40.76,56.65C42.549,48.377 48.935,41.827 57.16,39.83Z"/>
                </g>
            </g>
            <g transform="matrix(6.12323e-17,1,-1,6.12323e-17,508.502,0.198264)">
                <g transform="matrix(2.92512,2.92512,-2.94447,2.94447,252.429,-109.194)">
                    <path d="M57.16,39.83C57.16,38.23 57.29,36.62 57.47,35.02C58.47,25.95 62.59,20.42 64.47,12.5C66.86,2.89 57.32,-0.75 49.41,0.13C45.385,0.684 41.477,1.889 37.84,3.7C34.598,5.254 31.556,7.195 28.78,9.48C9.37,25.2 14.39,45.08 37,55.51C38.196,56.057 39.461,56.441 40.76,56.65C42.549,48.377 48.935,41.827 57.16,39.83Z"/>
                </g>
                <g transform="matrix(-2.92512,-2.92512,2.94447,-2.94447,255.875,617.895)">
                    <path d="M57.16,39.83C57.16,38.23 57.29,36.62 57.47,35.02C58.47,25.95 62.59,20.42 64.47,12.5C66.86,2.89 57.32,-0.75 49.41,0.13C45.385,0.684 41.477,1.889 37.84,3.7C34.598,5.254 31.556,7.195 28.78,9.48C9.37,25.2 14.39,45.08 37,55.51C38.196,56.057 39.461,56.441 40.76,56.65C42.549,48.377 48.935,41.827 57.16,39.83Z"/>
                </g>
            </g>
            <g transform="matrix(1.17509,0,0,1.17509,5.9848,-113.158)">
                <circle cx="211.486" cy="312.88" r="62.954"/>
            </g>
        </g>
    </g>
</svg>
